<svg xmlns="http://www.w3.org/2000/svg" width="54" height="50.979" viewBox="0 0 54 50.979">
  <g id="_002-creativity" data-name="002-creativity" transform="translate(-3 -4.86)">
    <path id="Path_7030" data-name="Path 7030" d="M61.985,56.44a.783.783,0,0,1-.68-.391L55.65,46.126a.783.783,0,0,1-.1-.391V12.175A4.558,4.558,0,0,1,60.1,7.622h3.77a4.558,4.558,0,0,1,4.553,4.553V45.738a.783.783,0,0,1-.1.391l-5.656,9.919a.783.783,0,0,1-.68.391ZM57.112,45.531l4.873,8.546,4.873-8.546V12.175A2.991,2.991,0,0,0,63.87,9.187H60.1a2.991,2.991,0,0,0-2.988,2.988Z" transform="translate(-11.423 -0.6)"/>
    <path id="Path_7031" data-name="Path 7031" d="M56.929,56.04l-1.061-1.15c.062-.058,6.257-5.657,12.375,0l-1.064,1.149c-5.045-4.664-10.04-.192-10.25,0Z" transform="translate(-11.493 -10.327)"/>
    <path id="Path_7032" data-name="Path 7032" d="M56.547,18.838H67.858V20.4H56.547Z" transform="translate(-11.641 -3.039)"/>
    <path id="Path_7033" data-name="Path 7033" d="M62.773,19.838h1.565V46.131H62.773Z" transform="translate(-12.994 -3.256)"/>
    <path id="Path_7034" data-name="Path 7034" d="M25.723,44.32H17.534a.783.783,0,0,1-.783-.783,12.2,12.2,0,0,0-4.175-9.085,13.652,13.652,0,1,1,18.026.069,11.965,11.965,0,0,0-4.1,9.016.783.783,0,0,1-.783.783Zm-7.429-1.565h6.669a13.532,13.532,0,0,1,4.61-9.412,12.085,12.085,0,1,0-15.958-.061,13.808,13.808,0,0,1,4.679,9.471Z" transform="translate(-1.082 -1.244)" fill="#e7461a"/>
    <path id="Path_7035" data-name="Path 7035" d="M26.876,57.844H21.794a1.369,1.369,0,0,1-1.367-1.367v-4a.783.783,0,0,1,.783-.783h6.252a.783.783,0,0,1,.783.783v4a1.369,1.369,0,0,1-1.368,1.367Zm-4.885-1.565h4.687V53.257H21.992Z" transform="translate(-3.788 -10.181)" fill="#e7461a"/>
    <path id="Path_7036" data-name="Path 7036" d="M24.421,4.86h1.565V7.785H24.421Z" transform="translate(-4.657)" fill="#e7461a"/>
    <path id="Path_7037" data-name="Path 7037" d="M0,0H1.565V2.924H0Z" transform="matrix(0.866, -0.5, 0.5, 0.866, 11.388, 7.524)" fill="#e7461a"/>
    <path id="Path_7038" data-name="Path 7038" d="M0,0H1.565V2.924H0Z" transform="matrix(0.5, -0.866, 0.866, 0.5, 5.465, 14.019)" fill="#e7461a"/>
    <path id="Path_7039" data-name="Path 7039" d="M3,25.534H5.925V27.1H3Z" transform="translate(0 -4.494)" fill="#e7461a"/>
    <path id="Path_7040" data-name="Path 7040" d="M44.106,25.534h2.925V27.1H44.106Z" transform="translate(-8.936 -4.494)" fill="#e7461a"/>
    <path id="Path_7041" data-name="Path 7041" d="M0,0H2.925V1.565H0Z" transform="matrix(0.866, -0.5, 0.5, 0.866, 32.311, 14.122)" fill="#e7461a"/>
    <path id="Path_7042" data-name="Path 7042" d="M0,0H2.925V1.565H0Z" transform="matrix(0.5, -0.866, 0.866, 0.5, 26.89, 9.276)" fill="#e7461a"/>
    <path id="Path_7043" data-name="Path 7043" d="M24.421,34.008h1.565V48.631H24.421Z" transform="translate(-4.657 -6.337)" fill="#e7461a"/>
    <path id="Path_7044" data-name="Path 7044" d="M24.473,33.111A3.415,3.415,0,1,1,27.887,29.7a3.415,3.415,0,0,1-3.415,3.415Zm0-5.264A1.849,1.849,0,1,0,26.322,29.7a1.849,1.849,0,0,0-1.849-1.849Z" transform="translate(-3.926 -4.657)" fill="#e7461a"/>
    <path id="Path_7045" data-name="Path 7045" d="M55.176,67.512H28.138A3.918,3.918,0,0,1,24.225,63.6V58.553H25.79V63.6a2.348,2.348,0,0,0,2.348,2.348H55.176Z" transform="translate(-4.614 -11.672)"/>
  </g>
</svg>
