<svg xmlns="http://www.w3.org/2000/svg" width="55" height="44.365" viewBox="0 0 55 44.365">
  <g id="_003-coding" data-name="003-coding" transform="translate(0 -49.5)">
    <path id="Path_7046" data-name="Path 7046" d="M.806,83.918a.806.806,0,0,0,.806-.806V60.779H37.168a.806.806,0,1,0,0-1.611H1.611V54.6A3.5,3.5,0,0,1,5.1,51.111h1.43a.806.806,0,1,0,0-1.611H5.1A5.108,5.108,0,0,0,0,54.6v28.51A.806.806,0,0,0,.806,83.918Z" transform="translate(0 0)"/>
    <path id="Path_7047" data-name="Path 7047" d="M49.9,49.5H10.258a.806.806,0,1,0,0,1.611H49.9A3.5,3.5,0,0,1,53.389,54.6v4.565H40.928a.806.806,0,0,0,0,1.611H53.389V88.763A3.5,3.5,0,0,1,49.9,92.254H5.1a3.5,3.5,0,0,1-3.491-3.491V86.943a.806.806,0,0,0-1.611,0v1.819a5.108,5.108,0,0,0,5.1,5.1H49.9a5.108,5.108,0,0,0,5.1-5.1V54.6A5.108,5.108,0,0,0,49.9,49.5Z" transform="translate(0 0)"/>
    <path id="Path_7048" data-name="Path 7048" d="M30.75,81.667a2.417,2.417,0,1,0,2.417-2.417A2.42,2.42,0,0,0,30.75,81.667Zm3.223,0a.806.806,0,1,1-.806-.806A.807.807,0,0,1,33.973,81.667Z" transform="translate(-27.447 -26.554)"/>
    <path id="Path_7049" data-name="Path 7049" d="M99.834,81.917a2.417,2.417,0,1,0-2.417,2.417A2.42,2.42,0,0,0,99.834,81.917Zm-3.223,0a.806.806,0,1,1,.806.806A.807.807,0,0,1,96.611,81.917Z" transform="translate(-84.795 -26.777)"/>
    <path id="Path_7050" data-name="Path 7050" d="M163.834,81.917a2.417,2.417,0,1,0-2.417,2.417A2.42,2.42,0,0,0,163.834,81.917Zm-3.223,0a.806.806,0,1,1,.806.806A.807.807,0,0,1,160.611,81.917Z" transform="translate(-141.92 -26.777)"/>
    <path id="Path_7051" data-name="Path 7051" d="M249.3,84.334a2.417,2.417,0,1,0,0-4.834H226.417a2.417,2.417,0,1,0,0,4.834Zm-23.687-2.417a.807.807,0,0,1,.806-.806H249.3a.806.806,0,1,1,0,1.611H226.417A.807.807,0,0,1,225.611,81.917Z" transform="translate(-199.938 -26.777)"/>
    <g id="Group_29" data-name="Group 29" transform="translate(8.517 66.194)">
      <path id="Path_7052" data-name="Path 7052" d="M208.04,206.4l-6.831,15.639a2.493,2.493,0,1,0,4.569,2l6.831-15.639a2.493,2.493,0,1,0-4.569-2Zm3.092,1.351L204.3,223.394a.881.881,0,1,1-1.615-.706l6.831-15.639a.881.881,0,0,1,1.615.706Z" transform="translate(-187.926 -204.91)" fill="#e7461a"/>
      <path id="Path_7053" data-name="Path 7053" d="M89.784,228.567a2.493,2.493,0,0,0-3.525,0l-6.242,6.242a2.493,2.493,0,0,0,0,3.525l6.326,6.326a2.493,2.493,0,1,0,3.525-3.525L85.3,236.572l4.479-4.479a2.5,2.5,0,0,0,0-3.525Zm-1.14,2.386L83.6,236a.811.811,0,0,0,0,1.139l5.133,5.133a.881.881,0,0,1-1.246,1.246l-6.326-6.326a.885.885,0,0,1,0-1.246l6.242-6.242a.881.881,0,1,1,1.246,1.247Z" transform="translate(-79.287 -225.374)" fill="#e7461a"/>
      <path id="Path_7054" data-name="Path 7054" d="M334.25,239.8a.806.806,0,1,0,1.139,1.139l2.605-2.605a2.493,2.493,0,0,0,0-3.525l-6.242-6.242a2.493,2.493,0,0,0-3.525,3.525l4.479,4.479-4.564,4.564a2.493,2.493,0,0,0,3.525,3.525l1.035-1.035a.806.806,0,0,0-1.139-1.139l-1.035,1.035a.881.881,0,1,1-1.246-1.246l5.133-5.133a.806.806,0,0,0,0-1.14l-5.049-5.049a.881.881,0,1,1,1.246-1.247l6.242,6.242a.881.881,0,0,1,0,1.246Z" transform="translate(-300.759 -225.374)" fill="#e7461a"/>
    </g>
  </g>
</svg>
