<svg xmlns="http://www.w3.org/2000/svg" width="59.572" height="52.716" viewBox="0 0 59.572 52.716">
  <g id="Group_30" data-name="Group 30" transform="translate(-475.057 -1780.284)">
    <path id="Path_7014" data-name="Path 7014" d="M231.3,440.259a.877.877,0,0,1-.877-.877v-2.331a.606.606,0,0,0-.606-.606h-2.354a.606.606,0,0,0-.605.606v2.331a.877.877,0,0,1-1.753,0v-2.331a2.362,2.362,0,0,1,2.359-2.359h2.354a2.362,2.362,0,0,1,2.359,2.359v2.331a.877.877,0,0,1-.877.877Z" transform="translate(276.139 1392.741)"/>
    <path id="Path_7015" data-name="Path 7015" d="M161.663,135.92a.877.877,0,0,0-1.409,1.043l4.353,5.88a1.845,1.845,0,0,1-.08,2.243l-4.69,5.353H146.631l-4.69-5.353a1.845,1.845,0,0,1-.08-2.243l8.643-11.673v6.652a4.467,4.467,0,1,0,5.577.1v-6.589l1.925,2.6a.877.877,0,0,0,1.409-1.043l-3.76-5.079a2.958,2.958,0,0,0-4.842,0L140.452,141.8a3.607,3.607,0,0,0,.17,4.442l3.912,4.464a2.863,2.863,0,0,0-1.656,2.593v4.182a2.865,2.865,0,0,0,2.008,2.73l.239,6.91a.877.877,0,0,0,.876.846h.031a.877.877,0,0,0,.846-.907l-.233-6.72H159.94l-.233,6.72a.877.877,0,0,0,.846.907h.031a.877.877,0,0,0,.876-.846l.24-6.95a2.864,2.864,0,0,0,1.89-2.69V153.3a2.863,2.863,0,0,0-1.656-2.593l3.911-4.464a3.607,3.607,0,0,0,.17-4.442Zm-8.429-7.62a1.254,1.254,0,0,1,1.012.548l.082.111v9.4a.877.877,0,0,0,.395.732,2.712,2.712,0,1,1-2.889-.056.877.877,0,0,0,.423-.75v-9.476a1.241,1.241,0,0,1,.977-.506Zm8.6,29.18a1.108,1.108,0,0,1-1.106,1.106H145.738a1.107,1.107,0,0,1-1.106-1.106V153.3a1.107,1.107,0,0,1,1.106-1.106h14.993a1.107,1.107,0,0,1,1.106,1.106Z" transform="translate(351.55 1665.033)" fill="#151515"/>
    <path id="Path_7016" data-name="Path 7016" d="M72.21,139.42a17.512,17.512,0,0,1,2.255-7.907.877.877,0,0,0-1.525-.865,19.269,19.269,0,0,0-2.485,8.764,3.5,3.5,0,1,0,1.755.009Zm-.893,5.124A1.743,1.743,0,1,1,73.06,142.8,1.745,1.745,0,0,1,71.317,144.544Z" transform="translate(415.128 1661.802)"/>
    <path id="Path_7017" data-name="Path 7017" d="M57.715,29.463H54.9a1.858,1.858,0,0,0-1.856,1.856v.532H33.051v-.532a1.858,1.858,0,0,0-1.856-1.856H28.377a1.858,1.858,0,0,0-1.856,1.856v.532H6.53v-.532a1.858,1.858,0,0,0-1.856-1.856H1.856A1.858,1.858,0,0,0,0,31.319v2.817a1.858,1.858,0,0,0,1.856,1.856H4.674A1.858,1.858,0,0,0,6.53,34.137V33.6H21.749A19.311,19.311,0,0,0,15.313,38.4a.877.877,0,1,0,1.316,1.159,17.506,17.506,0,0,1,9.891-5.645v.227a1.858,1.858,0,0,0,1.856,1.856h2.817a1.858,1.858,0,0,0,1.856-1.856V33.91A17.56,17.56,0,0,1,47.292,50.4a3.5,3.5,0,1,0,1.754-.008A19.341,19.341,0,0,0,37.823,33.6H53.042v.532A1.858,1.858,0,0,0,54.9,35.993h2.817a1.858,1.858,0,0,0,1.856-1.856V31.319a1.858,1.858,0,0,0-1.856-1.856ZM4.776,34.137a.1.1,0,0,1-.1.1H1.856a.1.1,0,0,1-.1-.1V31.319a.1.1,0,0,1,.1-.1H4.674a.1.1,0,0,1,.1.1ZM49.927,53.781a1.743,1.743,0,1,1-1.743-1.743A1.745,1.745,0,0,1,49.927,53.781ZM31.3,34.137a.1.1,0,0,1-.1.1H28.377a.1.1,0,0,1-.1-.1V31.319a.1.1,0,0,1,.1-.1h2.817a.1.1,0,0,1,.1.1Zm26.521,0a.1.1,0,0,1-.1.1H54.9a.1.1,0,0,1-.1-.1V31.319a.1.1,0,0,1,.1-.1h2.817a.1.1,0,0,1,.1.1Z" transform="translate(475.057 1750.821)" fill="#e7461a"/>
  </g>
</svg>
