<svg xmlns="http://www.w3.org/2000/svg" xmlns:xlink="http://www.w3.org/1999/xlink" width="154.403" height="56.517" viewBox="0 0 154.403 56.517">
  <defs>
    <linearGradient id="linear-gradient" y1="0.5" x2="1" y2="0.5" gradientUnits="objectBoundingBox">
      <stop offset="0.002" stop-color="#e74519"/>
      <stop offset="0.997" stop-color="#edb928"/>
    </linearGradient>
    <linearGradient id="linear-gradient-2" x1="0" y1="0.5" x2="1" y2="0.5" xlink:href="#linear-gradient"/>
  </defs>
  <g id="Group_29" data-name="Group 29" transform="translate(-53 -40)">
    <g id="Group_24" data-name="Group 24" transform="translate(117.741 48.201)">
      <path id="Path_28" data-name="Path 28" d="M373.794,282.406v-4.9a1.811,1.811,0,0,1,.99-.319c.688,0,1.039.4,1.039,1.192v4.025a1.415,1.415,0,0,0,1.376,1.426,1.4,1.4,0,0,0,1.392-1.426v-4.848a1.514,1.514,0,0,1,.99-.369c.738,0,1.04.369,1.04,1.225v3.992A1.415,1.415,0,0,0,382,283.832a1.376,1.376,0,0,0,1.392-1.426V278.28c0-2.5-1.124-3.808-3.623-3.808a4.775,4.775,0,0,0-2.751.906,3.32,3.32,0,0,0-2.382-.906,5.041,5.041,0,0,0-3.137.99,1.147,1.147,0,0,0-.486.939v6.005a1.429,1.429,0,0,0,1.392,1.426A1.4,1.4,0,0,0,373.794,282.406Z" transform="translate(-371.009 -274.472)" fill="#202020"/>
      <path id="Path_29" data-name="Path 29" d="M400.187,278.229c-2.281,0-3.372,1.174-3.372,2.734,0,1.677,1.241,2.952,3.657,2.952a6.571,6.571,0,0,0,3.606-.906,1.04,1.04,0,0,0,.469-.923v-4.059c0-2.365-1.308-3.556-3.942-3.556a6.18,6.18,0,0,0-2.3.4,1.29,1.29,0,0,0-.973,1.225c0,.822.755,1.308,1.879,1.04a6.382,6.382,0,0,1,1.392-.235c.957,0,1.308.352,1.308.973v.57A5.689,5.689,0,0,0,400.187,278.229Zm1.727,3.187a2.281,2.281,0,0,1-1.325.369c-.688,0-1.174-.3-1.174-.906,0-.52.4-.905,1.157-.905a4.407,4.407,0,0,1,1.342.2Z" transform="translate(-382.875 -274.472)" fill="#202020"/>
      <path id="Path_30" data-name="Path 30" d="M415.816,283.832a1.368,1.368,0,0,0,1.392-1.392v-4.395c0-.57.235-.856.688-.856a3.18,3.18,0,0,1,.637.067,3.154,3.154,0,0,0,.469.067,1.27,1.27,0,0,0,1.241-1.342,1.253,1.253,0,0,0-1.057-1.308,6.3,6.3,0,0,0-1.677-.2,2.765,2.765,0,0,0-3.086,2.986v4.982A1.41,1.41,0,0,0,415.816,283.832Z" transform="translate(-390.972 -274.472)" fill="#202020"/>
      <path id="Path_31" data-name="Path 31" d="M429.758,283.916a4.173,4.173,0,0,0,2.6-.805,2.544,2.544,0,0,0,1.074-2.147c0-1.527-.839-2.382-2.667-2.8l-1.073-.235c-.554-.117-.838-.3-.838-.537,0-.318.3-.486.906-.486a2.862,2.862,0,0,1,1.325.319,1.431,1.431,0,0,0,1.778-.185,1.282,1.282,0,0,0-.151-1.728,4.617,4.617,0,0,0-2.785-.839,4.208,4.208,0,0,0-2.634.805,2.53,2.53,0,0,0-1.057,2.147c0,1.476,1.04,2.348,2.5,2.734.353.084.772.184,1.258.285.52.1.771.285.771.553,0,.353-.319.537-.973.537a3.356,3.356,0,0,1-1.828-.52,1.251,1.251,0,0,0-1.761.251,1.294,1.294,0,0,0,.234,1.678A5.185,5.185,0,0,0,429.758,283.916Z" transform="translate(-396.291 -274.472)" fill="#202020"/>
      <path id="Path_32" data-name="Path 32" d="M372.341,302.4v6.407a1.414,1.414,0,0,0,1.375,1.426,1.4,1.4,0,0,0,1.393-1.426V302.4a1.387,1.387,0,0,0-1.393-1.426A1.363,1.363,0,0,0,372.341,302.4Z" transform="translate(-371.621 -286.658)" fill="#202020"/>
      <path id="Path_33" data-name="Path 33" d="M373.688,294.453a1.385,1.385,0,0,0-1.409,1.409,1.425,1.425,0,0,0,1.409,1.442,1.447,1.447,0,0,0,1.409-1.442A1.4,1.4,0,0,0,373.688,294.453Z" transform="translate(-371.593 -283.66)" fill="#202020"/>
      <path id="Path_34" data-name="Path 34" d="M384.039,308.721v-4.9a2.125,2.125,0,0,1,1.241-.319,1.14,1.14,0,0,1,1.241,1.225v3.992a1.414,1.414,0,0,0,1.375,1.426,1.376,1.376,0,0,0,1.392-1.426v-4.126c0-2.465-1.341-3.807-3.941-3.807a6.23,6.23,0,0,0-3.623.923,1.07,1.07,0,0,0-.47.939v6.072a1.429,1.429,0,0,0,1.393,1.426A1.4,1.4,0,0,0,384.039,308.721Z" transform="translate(-375.72 -286.572)" fill="#202020"/>
      <path id="Path_35" data-name="Path 35" d="M402.33,308.721v-4.9a2.125,2.125,0,0,1,1.241-.319,1.141,1.141,0,0,1,1.241,1.225v3.992a1.414,1.414,0,0,0,1.375,1.426,1.376,1.376,0,0,0,1.392-1.426v-4.126c0-2.465-1.341-3.807-3.942-3.807a6.233,6.233,0,0,0-3.623.923,1.069,1.069,0,0,0-.469.939v6.072a1.429,1.429,0,0,0,1.392,1.426A1.4,1.4,0,0,0,402.33,308.721Z" transform="translate(-384.131 -286.572)" fill="#202020"/>
      <path id="Path_36" data-name="Path 36" d="M424.8,309.241a3.628,3.628,0,0,0,1.308-2.55,11.969,11.969,0,0,0,0-2.449,3.421,3.421,0,0,0-1.308-2.482,4.277,4.277,0,0,0-2.869-.973,4.334,4.334,0,0,0-2.868.973,3.42,3.42,0,0,0-1.308,2.482,11.892,11.892,0,0,0,0,2.449,3.588,3.588,0,0,0,1.308,2.532,4.62,4.62,0,0,0,5.737.017Zm-4.311-3.019a7.5,7.5,0,0,1,0-1.51,1.36,1.36,0,0,1,1.442-1.292,1.307,1.307,0,0,1,1.426,1.292q.025.779,0,1.51a1.309,1.309,0,0,1-1.426,1.341A1.378,1.378,0,0,1,420.486,306.222Z" transform="translate(-392.473 -286.572)" fill="#202020"/>
      <path id="Path_37" data-name="Path 37" d="M435.568,301.61a1.505,1.505,0,0,0-.135,1.443l1.946,5.283a2.47,2.47,0,0,0,2.315,1.913,2.527,2.527,0,0,0,2.382-1.946l1.962-5.233a1.489,1.489,0,0,0-.151-1.46,1.41,1.41,0,0,0-1.224-.637,1.543,1.543,0,0,0-1.426,1.124c-.5,1.644-.838,2.8-1.023,3.488a12.565,12.565,0,0,0-.369,1.828c0,.134-.234.134-.234,0a48.036,48.036,0,0,0-1.375-5.333,1.528,1.528,0,0,0-1.426-1.107A1.461,1.461,0,0,0,435.568,301.61Z" transform="translate(-400.577 -286.658)" fill="#202020"/>
      <path id="Path_38" data-name="Path 38" d="M459.632,309.324a1.041,1.041,0,0,0,.47-.923v-4.059c0-2.364-1.308-3.555-3.942-3.555a6.18,6.18,0,0,0-2.3.4,1.29,1.29,0,0,0-.973,1.225c0,.822.755,1.308,1.879,1.04a6.408,6.408,0,0,1,1.392-.234c.956,0,1.308.352,1.308.972v.57a5.693,5.693,0,0,0-1.728-.218c-2.281,0-3.371,1.174-3.371,2.734,0,1.677,1.241,2.952,3.657,2.952A6.569,6.569,0,0,0,459.632,309.324Zm-4.662-2.13c0-.52.4-.905,1.157-.905a4.414,4.414,0,0,1,1.342.2v1.241a2.283,2.283,0,0,1-1.326.369C455.456,308.1,454.969,307.8,454.969,307.194Z" transform="translate(-408.42 -286.572)" fill="#202020"/>
      <path id="Path_39" data-name="Path 39" d="M474.746,305.935a4.036,4.036,0,0,1-.872.151c-.654,0-.973-.368-.973-1.124v-2.751h1.912a1.279,1.279,0,0,0,1.292-1.225,1.257,1.257,0,0,0-1.292-1.274H472.9v-1.024a1.433,1.433,0,0,0-1.392-1.442,1.387,1.387,0,0,0-1.375,1.442v6.34c0,2.147,1.124,3.607,3.288,3.607a5.189,5.189,0,0,0,2.214-.386,1.189,1.189,0,0,0,.721-1.157A1.2,1.2,0,0,0,474.746,305.935Z" transform="translate(-416.588 -284.944)" fill="#202020"/>
      <path id="Path_40" data-name="Path 40" d="M485.391,297.3a1.447,1.447,0,0,0,1.409-1.442,1.409,1.409,0,0,0-2.818,0A1.425,1.425,0,0,0,485.391,297.3Z" transform="translate(-422.956 -283.66)" fill="#202020"/>
      <path id="Path_41" data-name="Path 41" d="M485.42,310.232a1.4,1.4,0,0,0,1.392-1.426V302.4a1.387,1.387,0,0,0-1.392-1.426,1.363,1.363,0,0,0-1.375,1.426v6.407A1.414,1.414,0,0,0,485.42,310.232Z" transform="translate(-422.985 -286.658)" fill="#202020"/>
      <path id="Path_42" data-name="Path 42" d="M501.226,306.691a11.969,11.969,0,0,0,0-2.449,3.421,3.421,0,0,0-1.308-2.482,4.276,4.276,0,0,0-2.869-.973,4.334,4.334,0,0,0-2.868.973,3.42,3.42,0,0,0-1.308,2.482,11.961,11.961,0,0,0,0,2.449,3.588,3.588,0,0,0,1.308,2.532,4.62,4.62,0,0,0,5.737.017A3.628,3.628,0,0,0,501.226,306.691Zm-2.751-.469a1.309,1.309,0,0,1-1.426,1.341,1.378,1.378,0,0,1-1.442-1.341,7.58,7.58,0,0,1,0-1.51,1.36,1.36,0,0,1,1.442-1.292,1.307,1.307,0,0,1,1.426,1.292Q498.5,305.491,498.475,306.222Z" transform="translate(-427.016 -286.572)" fill="#202020"/>
      <path id="Path_43" data-name="Path 43" d="M516.67,308.721a1.414,1.414,0,0,0,1.375,1.426,1.376,1.376,0,0,0,1.392-1.426v-4.126c0-2.465-1.341-3.807-3.942-3.807a6.233,6.233,0,0,0-3.623.923,1.07,1.07,0,0,0-.469.939v6.072a1.429,1.429,0,0,0,1.392,1.426,1.4,1.4,0,0,0,1.393-1.426v-4.9a2.124,2.124,0,0,1,1.241-.319,1.141,1.141,0,0,1,1.241,1.225Z" transform="translate(-435.565 -286.572)" fill="#202020"/>
      <path id="Path_44" data-name="Path 44" d="M376.645,330.779a4.072,4.072,0,0,1-.872.151c-.654,0-.973-.369-.973-1.124v-2.751h1.912A1.279,1.279,0,0,0,378,325.831a1.257,1.257,0,0,0-1.291-1.275H374.8v-1.023a1.433,1.433,0,0,0-1.392-1.443,1.388,1.388,0,0,0-1.376,1.443v6.34c0,2.147,1.124,3.607,3.288,3.607a5.19,5.19,0,0,0,2.214-.386,1.189,1.189,0,0,0,.721-1.158A1.2,1.2,0,0,0,376.645,330.779Z" transform="translate(-371.479 -296.368)" fill="#202020"/>
      <path id="Path_45" data-name="Path 45" d="M389.449,325.63a4.154,4.154,0,0,0-2.818.99,3.858,3.858,0,0,0-1.258,2.633,12.64,12.64,0,0,0,0,2.264,3.806,3.806,0,0,0,1.291,2.55,4.289,4.289,0,0,0,2.869.99,5.426,5.426,0,0,0,2.734-.587,1.369,1.369,0,0,0,.8-1.174,1.186,1.186,0,0,0-.537-1.006,1.17,1.17,0,0,0-1.242-.051,4.016,4.016,0,0,1-1.66.42c-.939,0-1.644-.436-1.644-1.225v-.1l4.211-.017a1.155,1.155,0,0,0,1.241-1.274v-.386a3.777,3.777,0,0,0-3.992-4.026Zm1.342,3.908h-2.8c0-1.023.5-1.677,1.51-1.677a1.36,1.36,0,0,1,1.459,1.476C390.959,329.471,390.909,329.538,390.791,329.538Z" transform="translate(-377.591 -297.996)" fill="#202020"/>
      <path id="Path_46" data-name="Path 46" d="M407.238,328.263a1.613,1.613,0,0,1,1.392.738,1.184,1.184,0,0,0,1.04.536,1.331,1.331,0,0,0,1.342-1.409,2.215,2.215,0,0,0-1.057-1.694,4.532,4.532,0,0,0-2.818-.805,4.215,4.215,0,0,0-2.834.973,3.423,3.423,0,0,0-1.258,2.482,14.283,14.283,0,0,0,0,2.4,3.74,3.74,0,0,0,1.292,2.566,4.066,4.066,0,0,0,2.8,1.023,4.42,4.42,0,0,0,2.8-.822,2.274,2.274,0,0,0,1.073-1.745,1.331,1.331,0,0,0-1.342-1.409,1.183,1.183,0,0,0-1.04.537,1.614,1.614,0,0,1-1.392.738,1.359,1.359,0,0,1-1.46-1.376,7,7,0,0,1,0-1.442A1.333,1.333,0,0,1,407.238,328.263Z" transform="translate(-385.716 -297.996)" fill="#202020"/>
      <path id="Path_47" data-name="Path 47" d="M425.273,323.2a3.286,3.286,0,0,0-1.778.419v-1.828a1.39,1.39,0,0,0-1.393-1.442,1.376,1.376,0,0,0-1.375,1.442v9.343a1.417,1.417,0,0,0,1.392,1.426,1.373,1.373,0,0,0,1.375-1.426v-4.8a1.945,1.945,0,0,1,1.275-.42,1.124,1.124,0,0,1,1.207,1.225V331.1a1.386,1.386,0,1,0,2.768,0v-4.093C428.744,324.545,427.5,323.2,425.273,323.2Z" transform="translate(-393.87 -295.569)" fill="#202020"/>
      <path id="Path_48" data-name="Path 48" d="M443.078,325.63a6.233,6.233,0,0,0-3.623.923,1.07,1.07,0,0,0-.469.939v6.072a1.429,1.429,0,0,0,1.392,1.426,1.4,1.4,0,0,0,1.393-1.426v-4.9a2.127,2.127,0,0,1,1.241-.319,1.141,1.141,0,0,1,1.241,1.225v3.991a1.415,1.415,0,0,0,1.375,1.426,1.376,1.376,0,0,0,1.392-1.426v-4.126C447.02,326.972,445.679,325.63,443.078,325.63Z" transform="translate(-402.266 -297.996)" fill="#202020"/>
      <path id="Path_49" data-name="Path 49" d="M464.237,326.6a4.276,4.276,0,0,0-2.868-.973,4.335,4.335,0,0,0-2.868.973,3.418,3.418,0,0,0-1.308,2.482,11.979,11.979,0,0,0,0,2.45,3.588,3.588,0,0,0,1.308,2.532,4.621,4.621,0,0,0,5.737.017,3.624,3.624,0,0,0,1.308-2.549,11.979,11.979,0,0,0,0-2.45A3.418,3.418,0,0,0,464.237,326.6Zm-1.443,4.461a1.308,1.308,0,0,1-1.426,1.342,1.378,1.378,0,0,1-1.442-1.342,7.5,7.5,0,0,1,0-1.51,1.36,1.36,0,0,1,1.442-1.292,1.307,1.307,0,0,1,1.426,1.292Q462.819,330.334,462.794,331.065Z" transform="translate(-410.609 -297.996)" fill="#202020"/>
      <path id="Path_50" data-name="Path 50" d="M477.253,320.413a1.387,1.387,0,0,0-1.375,1.443v9.309a1.4,1.4,0,0,0,1.375,1.426,1.376,1.376,0,0,0,1.392-1.426v-9.309A1.422,1.422,0,0,0,477.253,320.413Z" transform="translate(-419.23 -295.597)" fill="#202020"/>
      <path id="Path_51" data-name="Path 51" d="M491.6,326.6a4.277,4.277,0,0,0-2.869-.973,4.336,4.336,0,0,0-2.868.973,3.417,3.417,0,0,0-1.308,2.482,11.9,11.9,0,0,0,0,2.45,3.587,3.587,0,0,0,1.308,2.532,4.622,4.622,0,0,0,5.737.017,3.625,3.625,0,0,0,1.308-2.549,11.9,11.9,0,0,0,0-2.45A3.419,3.419,0,0,0,491.6,326.6Zm-1.443,4.461a1.309,1.309,0,0,1-1.426,1.342,1.378,1.378,0,0,1-1.442-1.342,7.5,7.5,0,0,1,0-1.51,1.36,1.36,0,0,1,1.442-1.292,1.307,1.307,0,0,1,1.426,1.292Q490.178,330.334,490.152,331.065Z" transform="translate(-423.189 -297.996)" fill="#202020"/>
      <path id="Path_52" data-name="Path 52" d="M510.436,326.67a5.949,5.949,0,0,0-1.526-.7,6.5,6.5,0,0,0-2.063-.335,4.078,4.078,0,0,0-2.952,1.023,3.94,3.94,0,0,0-1.208,2.55,9.788,9.788,0,0,0,0,2.214,3.347,3.347,0,0,0,3.623,3.254,4.372,4.372,0,0,0,1.845-.369v.151a1.316,1.316,0,0,1-1.476,1.409,3.358,3.358,0,0,1-1.409-.352,2.434,2.434,0,0,0-.972-.268,1.177,1.177,0,0,0-1.241,1.191,1.475,1.475,0,0,0,.923,1.292,5.413,5.413,0,0,0,2.7.654,4.422,4.422,0,0,0,2.986-1.057,3.886,3.886,0,0,0,1.241-3.12v-6.592A1.049,1.049,0,0,0,510.436,326.67Zm-2.3,5.249a2.358,2.358,0,0,1-1.359.386c-.856,0-1.308-.469-1.358-1.425-.017-.437-.017-.822,0-1.174a1.378,1.378,0,0,1,1.425-1.443,2.01,2.01,0,0,1,1.292.386Z" transform="translate(-431.528 -297.996)" fill="#202020"/>
      <path id="Path_53" data-name="Path 53" d="M529.169,326.425a1.424,1.424,0,0,0-1.258-.67,1.555,1.555,0,0,0-1.409,1.124,43.914,43.914,0,0,0-1.359,4.613c-.05.134-.185.134-.235,0a42.272,42.272,0,0,0-1.409-4.629,1.541,1.541,0,0,0-1.426-1.107,1.473,1.473,0,0,0-1.375,2.079l2.718,6.408A5.363,5.363,0,0,1,522.107,336a1.366,1.366,0,0,0-.536,1.107A1.25,1.25,0,0,0,522.9,338.4a1.836,1.836,0,0,0,1.09-.386,7.335,7.335,0,0,0,2.2-3.087l3.1-7.078A1.327,1.327,0,0,0,529.169,326.425Z" transform="translate(-439.777 -298.053)" fill="#202020"/>
    </g>
    <g id="Group_25" data-name="Group 25" transform="translate(53 40)">
      <path id="Path_54" data-name="Path 54" d="M277.352,287.116a11.348,11.348,0,0,1-9.464,11.189,34.015,34.015,0,0,1-1.881-11.189q0-.314.008-.628c0-.053,0-.106,0-.159,0-.113,0-.227.01-.338,0-.005,0-.008,0-.01,0-.078.005-.156.008-.234s.005-.146.01-.219q.015-.336.038-.673c.01-.187.025-.371.041-.552.01-.134.02-.267.035-.4,0-.03,0-.061.01-.089a.029.029,0,0,1,0-.025.019.019,0,0,1,0-.015c.01-.113.021-.23.036-.346.015-.144.03-.285.05-.426a.769.769,0,0,1,.012-.108c.008-.073.015-.146.028-.219a.184.184,0,0,1,.008-.056q.034-.276.076-.55c.027-.194.058-.391.093-.584.01-.071.021-.139.036-.21.032-.2.07-.406.108-.607s.076-.391.119-.585c.008-.036.015-.073.023-.109.027-.129.056-.257.086-.386a.466.466,0,0,1,.02-.083c.023-.109.048-.219.076-.328a.3.3,0,0,1,.01-.048c.04-.176.085-.35.131-.527.053-.214.111-.428.172-.64.048-.179.1-.356.153-.53.023-.085.048-.171.076-.254q.19-.631.406-1.251c.02-.053.038-.106.055-.156a34.015,34.015,0,0,1,5.63-10.052,22.407,22.407,0,0,1,3.78,1.742,22.735,22.735,0,0,1,5.672,4.649,22.735,22.735,0,0,1,5.672-4.649,22.408,22.408,0,0,1,3.78-1.742q-.533-.662-1.1-1.293a33.491,33.491,0,0,0-2.678-2.678c-.171-.153-.345-.307-.522-.454-.159-.139-.323-.275-.486-.408q-.322-.263-.652-.519a33.313,33.313,0,0,0-3.4-2.363q-.308-.19-.611-.371a33.779,33.779,0,0,0-13.233-4.344,45.5,45.5,0,0,0-9.056,11.136c-.139.234-.272.474-.4.714a45.168,45.168,0,0,0-5.668,21.684c0,.1,0,.194,0,.292s0,.2,0,.293a45.168,45.168,0,0,0,5.668,21.684,22.84,22.84,0,0,0,13.241-.58,22.364,22.364,0,0,0,3.78-1.743,22.719,22.719,0,0,0,5.672-4.649,22.6,22.6,0,0,1-5.672-15.006Z" transform="translate(-254.661 -253.29)" fill="url(#linear-gradient)"/>
      <path id="Path_55" data-name="Path 55" d="M335.528,286.824a45.168,45.168,0,0,0-5.668-21.684c-.131-.24-.265-.479-.4-.714A45.514,45.514,0,0,0,320.4,253.29a33.779,33.779,0,0,0-13.234,4.344c.118.071.237.141.355.214.086.05.169.1.255.156s.151.091.227.139c.92.577,1.858,1.22,2.768,1.906.048.04.1.078.149.116.085.066.174.134.259.2.573.443,1.13.908,1.659,1.381a33.5,33.5,0,0,1,2.678,2.678q.567.631,1.1,1.293a34,34,0,0,1,5.63,10.052c.017.05.035.1.055.156q.216.62.406,1.251c.028.083.053.169.076.254.053.174.106.351.154.53.06.212.118.426.171.64.045.177.091.351.131.527a.3.3,0,0,1,.01.048c.028.109.053.219.076.328a.018.018,0,0,1,.005.015.01.01,0,0,1,0,.008.481.481,0,0,1,.013.061.081.081,0,0,1,.008.033c.008.025.012.053.017.078.02.093.04.182.06.275.008.035.015.073.023.109.043.194.081.388.119.585s.076.4.108.607c.015.071.025.139.036.21.01.048.017.1.025.146.018.1.033.192.045.29.008.048.015.1.023.149,0,.015.005.031.008.048l.008.053a.066.066,0,0,1,0,.023.022.022,0,0,1,0,.013c.015.1.028.2.04.295.01.058.018.116.023.174s.021.146.028.219a1.029,1.029,0,0,1,.015.121c.012.083.023.166.03.252a.005.005,0,0,1,0,.008.028.028,0,0,1,0,.015s0,0,0,0a.025.025,0,0,1,0,.012.11.11,0,0,1,0,.028.14.14,0,0,1,0,.03.05.05,0,0,1,0,.028.083.083,0,0,1,0,.033.289.289,0,0,1,.005.048.078.078,0,0,1,0,.023.056.056,0,0,1,0,.017c0,.01,0,.021,0,.03a.005.005,0,0,1,0,.008.073.073,0,0,1,0,.021s0,0,0,0v0a.058.058,0,0,1,0,.02s0,0,0,0a.031.031,0,0,1,0,.015.123.123,0,0,1,0,.028s0,0,0,.008,0,0,0,0a.021.021,0,0,1,0,.012.007.007,0,0,1,0,.01.064.064,0,0,1,0,.03.293.293,0,0,1,0,.041,0,0,0,0,1,0,0s0,.008,0,.01a.5.5,0,0,1,.01.106.079.079,0,0,1,0,.028.01.01,0,0,1,0,0,0,0,0,0,1,0,.005.4.4,0,0,1,.008.078.048.048,0,0,1,0,.021.115.115,0,0,1,0,.03c0,.017,0,.032,0,.05v.008a.214.214,0,0,1,0,.041.088.088,0,0,1,0,.025.1.1,0,0,1,0,.028c0,.038.008.076.01.113.015.181.03.365.04.552,0,.028.005.056.005.083.012.171.022.343.03.514,0,.041,0,.081,0,.121l.008.174c0,.038,0,.078,0,.118s0,.068,0,.1c0,0,0,.008,0,.012s0,0,0,.01,0,0,0,0,0,0,0,0c0,.111.008.222.01.333,0,.03,0,.063,0,.093a.653.653,0,0,1,0,.073.116.116,0,0,1,0,.03v.1c0,.08,0,.164,0,.245s0,.164,0,.244a34.015,34.015,0,0,1-1.881,11.189,11.348,11.348,0,0,1-9.464-11.189,22.6,22.6,0,0,1-5.672,15.006,22.72,22.72,0,0,0,5.672,4.649,22.363,22.363,0,0,0,3.78,1.743,22.84,22.84,0,0,0,13.241.58,45.168,45.168,0,0,0,5.668-21.684c0-.1,0-.194,0-.293S335.531,286.922,335.528,286.824Z" transform="translate(-278.805 -253.29)" fill="url(#linear-gradient-2)"/>
      <path id="Path_56" data-name="Path 56" d="M304.977,291.792a22.481,22.481,0,0,0-2.637-3.661,22.654,22.654,0,0,0,0,30.012,22.7,22.7,0,0,0,2.637-26.351Zm-1.226,13.169a12.019,12.019,0,0,1-1.411,1.959,12.125,12.125,0,0,1,0-16.064,12.149,12.149,0,0,1,1.411,14.1Z" transform="translate(-273.976 -269.311)" fill="url(#linear-gradient-2)"/>
    </g>
  </g>
</svg>
