<svg xmlns="http://www.w3.org/2000/svg" width="52.716" height="52.716" viewBox="0 0 52.716 52.716">
  <g id="Outline" transform="translate(-16 -16)">
    <path id="Path_7018" data-name="Path 7018" d="M17.5,256.257a.879.879,0,0,0-1.5.621v24.6a.879.879,0,0,0,.879.879h24.6a.879.879,0,0,0,.621-1.5Zm.257,24.343V259l21.6,21.6Z" transform="translate(0 -213.642)" fill="#e7461a"/>
    <path id="Path_7019" data-name="Path 7019" d="M64.879,376.786h7.029a.879.879,0,0,0,.621-1.5L65.5,368.257a.879.879,0,0,0-1.5.621v7.029A.879.879,0,0,0,64.879,376.786ZM65.757,371l4.029,4.029H65.757Z" transform="translate(-42.728 -313.341)" fill="#e7461a"/>
    <path id="Path_7020" data-name="Path 7020" d="M104,48h1.757v1.757H104Z" transform="translate(-78.335 -28.486)"/>
    <path id="Path_7021" data-name="Path 7021" d="M136,48h1.757v1.757H136Z" transform="translate(-106.821 -28.486)"/>
    <path id="Path_7022" data-name="Path 7022" d="M168,48h1.757v1.757H168Z" transform="translate(-135.307 -28.486)"/>
    <path id="Path_7023" data-name="Path 7023" d="M176.522,131.591a.866.866,0,0,0-.522.8v9.665a.879.879,0,0,0,.522.8l7.907,3.514a.875.875,0,0,0,.714,0h0l7.907-3.514a.879.879,0,0,0,.522-.8v-9.665a.866.866,0,0,0-.522-.8h0l-7.907-3.514a.88.88,0,0,0-.714,0l-7.907,3.514Zm7.385,12.629-6.15-2.734v-7.742l6.15,2.734Zm7.907-2.734-6.15,2.734v-7.742l6.15-2.733Zm-7.029-11.646,5.744,2.553-5.744,2.553-5.744-2.553Z" transform="translate(-142.428 -99.7)"/>
    <path id="Path_7024" data-name="Path 7024" d="M248,320h1.757v4.393H248Z" transform="translate(-206.521 -270.613)"/>
    <path id="Path_7025" data-name="Path 7025" d="M248,72h1.757v4.393H248Z" transform="translate(-206.521 -49.85)"/>
    <path id="Path_7026" data-name="Path 7026" d="M0,0H1.757V4.077H0Z" transform="translate(27.038 30.856) rotate(-64.46)"/>
    <path id="Path_7027" data-name="Path 7027" d="M0,0H4.077V1.757H0Z" transform="translate(53.222 31.015) rotate(-25.54)"/>
    <path id="Path_7028" data-name="Path 7028" d="M0,0H4.077V1.757H0Z" transform="translate(27.038 45.07) rotate(-25.54)"/>
    <path id="Path_7029" data-name="Path 7029" d="M117.687,56.415h-5.272V42.722l5.165-5.165a3.364,3.364,0,1,0-4.757-4.757l-.408.408V25.665a.879.879,0,0,0-.257-.621l-8.786-8.786a.879.879,0,0,0-.621-.257H75.514A3.518,3.518,0,0,0,72,19.514V44.994h1.757V19.514a1.759,1.759,0,0,1,1.757-1.757h26.358v5.272a3.518,3.518,0,0,0,3.514,3.514h5.272v8.422l-13.8,13.8a.88.88,0,0,0-.24.449l-.879,4.393a.879.879,0,0,0,1.034,1.034l4.393-.879a.879.879,0,0,0,.449-.24l9.043-9.043V56.415H93.086a.879.879,0,0,0-.879.879V59.93H87.815v1.757h4.393v2.636a.879.879,0,0,0,.879.879h24.6a.879.879,0,0,0,.879-.879V57.294a.879.879,0,0,0-.879-.879ZM103.629,23.029V19l5.786,5.786h-4.029a1.759,1.759,0,0,1-1.757-1.757ZM98.722,49.387l13.694-13.694,2.272,2.272L100.994,51.659ZM115.2,33.572a1.607,1.607,0,0,1,1.136,2.742l-.408.408-2.272-2.272.408-.408a1.6,1.6,0,0,1,1.136-.47Zm-17.183,17.6,1.193,1.193-1.491.3Zm18.79,12.275H93.965V58.173h1.757V59.93h1.757V58.173h1.757V59.93h1.757V58.173h1.757V59.93h1.757V58.173h1.757V59.93h1.757V58.173h1.757V59.93h1.757V58.173h1.757V59.93h1.757V58.173h1.757Z" transform="translate(-49.85)"/>
  </g>
</svg>
