<svg xmlns="http://www.w3.org/2000/svg" width="70" height="50.806" viewBox="0 0 70 50.806">
  <g id="Vdo_edit" data-name="Vdo edit" transform="translate(-1 -9)">
    <path id="Path_7055" data-name="Path 7055" d="M36,49.645H4.387a1.129,1.129,0,0,1-1.129-1.129V12.387a1.129,1.129,0,0,1,1.129-1.129H54.065a1.129,1.129,0,0,1,1.129,1.129V38.355a1.129,1.129,0,0,0,2.258,0V12.387A3.387,3.387,0,0,0,54.065,9H4.387A3.387,3.387,0,0,0,1,12.387V48.516A3.387,3.387,0,0,0,4.387,51.9H36a1.129,1.129,0,1,0,0-2.258Z"/>
    <path id="Path_7056" data-name="Path 7056" d="M23.575,34.145a1.129,1.129,0,0,0,1.139-.017l7.475-4.516a1.129,1.129,0,0,0,0-1.933l-7.475-4.516A1.129,1.129,0,0,0,23,24.129v9.032a1.129,1.129,0,0,0,.575.983Zm1.683-8.015,4.163,2.515-4.163,2.515Z" transform="translate(2.839 1.806)"/>
    <path id="Path_7057" data-name="Path 7057" d="M27.161,39.323A10.161,10.161,0,1,0,17,29.161,10.161,10.161,0,0,0,27.161,39.323Zm0-18.065a7.9,7.9,0,1,1-7.9,7.9,7.9,7.9,0,0,1,7.9-7.9Z" transform="translate(2.065 1.29)"/>
    <path id="Path_7058" data-name="Path 7058" d="M6.129,41a1.129,1.129,0,0,0,0,2.258h9.032a1.129,1.129,0,0,0,0-2.258Z" transform="translate(0.516 4.129)"/>
    <path id="Path_7059" data-name="Path 7059" d="M17.129,41a1.129,1.129,0,0,0,0,2.258h1.129a1.129,1.129,0,0,0,0-2.258Z" transform="translate(1.935 4.129)"/>
    <path id="Path_7060" data-name="Path 7060" d="M51.935,39.129v1.129H36.129a1.129,1.129,0,0,0,0,2.258H51.935v1.129a1.129,1.129,0,0,0,1.129,1.129h3.387a1.129,1.129,0,0,0,1.129-1.129V42.516h7.9a1.129,1.129,0,0,0,0-2.258h-7.9V39.129A1.129,1.129,0,0,0,56.452,38H53.065A1.129,1.129,0,0,0,51.935,39.129Zm2.258,1.129h1.129v2.258H54.194Z" transform="translate(4.387 3.742)" fill="#e7461a"/>
    <path id="Path_7061" data-name="Path 7061" d="M65.484,50.258h-7.9V49.129A1.129,1.129,0,0,0,56.452,48H53.065a1.129,1.129,0,0,0-1.129,1.129v1.129H36.129a1.129,1.129,0,0,0,0,2.258H51.935v1.129a1.129,1.129,0,0,0,1.129,1.129h3.387a1.129,1.129,0,0,0,1.129-1.129V52.516h7.9a1.129,1.129,0,0,0,0-2.258ZM55.323,52.516H54.194V50.258h1.129Z" transform="translate(4.387 5.032)" fill="#e7461a"/>
    <path id="Path_7062" data-name="Path 7062" d="M45.161,49.774h3.387a1.129,1.129,0,0,0,1.129-1.129V47.516H59.839a1.129,1.129,0,0,0,0-2.258H49.677V44.129A1.129,1.129,0,0,0,48.548,43H45.161a1.129,1.129,0,0,0-1.129,1.129v1.129h-7.9a1.129,1.129,0,1,0,0,2.258h7.9v1.129A1.129,1.129,0,0,0,45.161,49.774Zm1.129-4.516h1.129v2.258H46.29Z" transform="translate(4.387 4.387)" fill="#e7461a"/>
    <path id="Path_7063" data-name="Path 7063" d="M62.387,45H60.129a1.129,1.129,0,0,0,0,2.258h2.258a1.129,1.129,0,0,0,0-2.258Z" transform="translate(7.484 4.645)" fill="#e7461a"/>
  </g>
</svg>
